<!--?xml version="1.0" encoding="utf-8"?-->
<!-- Generator: Adobe Illustrator 16.0.0, SVG Export Plug-In . SVG Version: 6.00 Build 0)  -->

<svg version="1.1" id="Layer_1" xmlns="http://www.w3.org/2000/svg" xmlns:xlink="http://www.w3.org/1999/xlink" x="0px" y="0px" width="472px" height="218px" viewBox="0 0 472 218" enable-background="new 0 0 472 218" xml:space="preserve" style="">
<g id="BACKGROUND_1">
	<path fill="#EA4F1F" d="M455.944,162.741v-19.097l-11.586-1.965c-0.602-1.846-1.341-3.629-2.21-5.335l6.803-9.581l-13.502-13.504
		l-9.583,6.805c-1.706-0.871-3.488-1.609-5.335-2.211l-1.965-11.586h-9.548v21.403c14.096,0,25.521,11.428,25.521,25.521
		c0,14.096-11.427,25.521-25.521,25.522v21.402h9.548l1.965-11.586c1.847-0.601,3.629-1.341,5.335-2.21l9.583,6.804l13.502-13.503
		l-6.803-9.582c0.869-1.706,1.608-3.489,2.21-5.335L455.944,162.741z" class="OxYpkKlf_0"></path>
	<path fill="#FFFFFF" width="68.631" height="92.279" d="M331.188 102.457 L399.81899999999996 102.457 L399.81899999999996 194.736 L331.188 194.736 Z" class="OxYpkKlf_1"></path>
	<path fill="#62C4F3" width="62.19" height="85.84" d="M337.628 108.896 L399.818 108.896 L399.818 194.736 L337.628 194.736 Z" class="OxYpkKlf_2"></path>
	<path fill="#62C4F3" d="M220.794,191.77v1.114c0,3.343-2.708,6.052-6.05,6.052H195.45c-3.342,0-6.051-2.709-6.051-6.052v-1.114
		H90.433V194c0,6.684,5.417,12.1,12.101,12.1h205.129c6.684,0,12.101-5.416,12.101-12.1v-2.23H220.794z" class="OxYpkKlf_3"></path>
	<path fill="#62C4F3" d="M233.737,133.762c0,13.78-8.688,25.52-20.884,30.051c-3.931,1.468-8.229,2.178-12.714,1.965
		c-16.435-0.771-29.702-14.031-30.473-30.473c-0.792-16.912,11.541-31.114,27.682-33.299c1.419-0.19,2.866-0.293,4.334-0.293v32.049
		H233.737z" class="OxYpkKlf_4"></path>
	<path fill="#FFFFFF" d="M151.622,112.67c2.408,1.195,5.022,2.048,7.76,2.498c-0.737,0.514-1.501,0.982-2.3,1.393
		c-3.085,1.646-6.601,2.573-10.34,2.573c-3.229,0-6.3-0.688-9.07-1.938h-0.007c-0.498-0.226-0.982-0.463-1.46-0.729
		c-2.178-1.174-4.137-2.702-5.794-4.518c-3.904,0.846-8.013,1.311-12.25,1.311c-10.006,0-19.273-2.519-26.855-6.798
		c-11.821-6.682-19.533-17.656-19.533-30.057v-0.041C71.8,56.032,92.562,39.55,118.161,39.55c13.056,0,24.85,4.286,33.271,11.187
		c7.563,6.183,12.415,14.469,13.036,23.647c0.055,0.669,0.075,1.345,0.075,2.021c0,12.783-8.19,24.037-20.625,30.65
		C146.135,109.34,148.735,111.251,151.622,112.67z" class="OxYpkKlf_5"></path>
	<path fill="#62C4F3" d="M151.622,112.67c2.408,1.195,5.022,2.048,7.76,2.498c-0.737,0.514-1.501,0.982-2.3,1.393
		c-3.085,1.646-6.601,2.573-10.34,2.573c-3.229,0-6.3-0.688-9.07-1.938h-0.007c-0.498-0.226-0.982-0.463-1.46-0.729
		c-2.178-1.174-4.137-2.702-5.794-4.518c-3.904,0.846-8.013,1.311-12.25,1.311c-10.006,0-19.273-2.519-26.855-6.798
		c-11.821-6.682-19.533-17.656-19.533-30.057v-0.041c6.437-19.369,24.911-33.353,46.702-33.353c21.034,0,38.99,13.042,45.993,31.373
		c0.055,0.669,0.075,1.345,0.075,2.021c0,12.783-8.19,24.037-20.625,30.65C146.135,109.34,148.735,111.251,151.622,112.67z" class="OxYpkKlf_6"></path>
	<path fill="none" stroke="#132345" stroke-width="3" stroke-linecap="round" stroke-linejoin="round" stroke-miterlimit="10" d="
		M171.37,81.833h107.567c3.689,0,6.681,2.99,6.681,6.68v83.67c0,3.688-2.99,6.681-6.681,6.681h-147.68
		c-3.689,0-6.68-2.991-6.68-6.681V119.46" class="OxYpkKlf_7"></path>
	<path fill="none" stroke="#132345" stroke-width="3" stroke-linecap="round" stroke-linejoin="round" stroke-miterlimit="10" d="
		M306.602,206.1H103.593c-7.268,0-13.161-5.893-13.161-13.16v-1.17h229.329v1.17C319.762,200.207,313.869,206.1,306.602,206.1z" class="OxYpkKlf_8"></path>
	<path fill="none" stroke="#132345" stroke-width="3" stroke-linecap="round" stroke-linejoin="round" stroke-miterlimit="10" d="
		M214.214,198.936H195.98c-3.634,0-6.58-2.946-6.58-6.582v-0.584h31.395v0.584C220.794,195.988,217.848,198.936,214.214,198.936z" class="OxYpkKlf_9"></path>
	<g>
		
			<path fill="none" stroke="#132345" stroke-width="3" stroke-linecap="round" stroke-linejoin="round" stroke-miterlimit="10" d="M110.919,138.452L110.919,119.639" class="OxYpkKlf_10"></path>
		<path fill="none" stroke="#132345" stroke-width="3" stroke-linecap="round" stroke-linejoin="round" stroke-miterlimit="10" d="
			M170.414,68.928h122.181c3.689,0,6.681,2.99,6.681,6.68V191.77H110.919v-34.918" class="OxYpkKlf_11"></path>
	</g>
	<g>
		
			<text transform="matrix(1 0 0 1 98.7083 93.4795)" fill="#FFFFFF" font-family="'ArialMT'" font-size="55.5419" letter-spacing="10">@</text>
	</g>
	<path fill="#EA4F1F" d="M208.513,94.882v32.054h32.053C240.565,109.232,226.215,94.882,208.513,94.882z" class="OxYpkKlf_12"></path>
	<path fill="none" stroke="#132345" stroke-width="3" stroke-linecap="round" stroke-linejoin="round" stroke-miterlimit="10" d="
		M143.916,107.052c12.435-6.61,20.625-17.868,20.625-30.648c0-20.354-20.768-36.854-46.384-36.854
		c-25.617,0-46.385,16.5-46.385,36.854s20.768,36.854,46.385,36.854c4.242,0,8.348-0.462,12.253-1.31
		c4.052,4.415,9.868,7.185,16.334,7.185c4.699,0,9.054-1.467,12.641-3.961C153.355,114.182,147.982,111.253,143.916,107.052z" class="OxYpkKlf_13"></path>
	<g>
		<g>
			<g>
				<g>
					<g>
						<path fill="none" stroke="#132345" stroke-width="3" stroke-linecap="round" stroke-linejoin="round" d="M101.331,119.345
							c-1.957-0.524-3.865-1.137-5.719-1.831" class="OxYpkKlf_14"></path>
						
							<path fill="none" stroke="#132345" stroke-width="3" stroke-linecap="round" stroke-linejoin="round" stroke-dasharray="11.528,11.528" d="
							M85.279,112.434c-13.221-8.245-21.78-21.328-21.78-36.03c0-24.885,24.52-45.129,54.659-45.129
							c11.796,0,22.73,3.102,31.673,8.368" class="OxYpkKlf_15"></path>
						<path fill="none" stroke="#132345" stroke-width="3" stroke-linecap="round" stroke-linejoin="round" d="M154.632,42.82
							c1.625,1.204,3.162,2.487,4.603,3.842" class="OxYpkKlf_16"></path>
					</g>
					
						<path fill="none" stroke="#132345" stroke-width="3" stroke-linecap="round" stroke-linejoin="round" stroke-dasharray="2.4827" d="
						M166.764,55.775c0.44,0.703,0.858,1.418,1.254,2.143" class="OxYpkKlf_17"></path>
				</g>
			</g>
		</g>
	</g>
	<g>
		<g>
			<path fill="none" stroke="#132345" stroke-width="3" stroke-linecap="round" stroke-linejoin="round" stroke-miterlimit="10" d="
				M414.281,37.868c0.017,13.77-11.114,24.942-24.884,24.958c-13.771,0.015-24.925-11.134-24.939-24.903
				c-0.008-7.027,2.899-13.393,7.579-17.911c4.49-4.348,10.563-7.021,17.306-7.028c6.742-0.007,12.82,2.652,17.319,6.99
				C411.353,24.482,414.273,30.84,414.281,37.868z" class="OxYpkKlf_18"></path>
			<path fill="none" stroke="#132345" stroke-width="3" stroke-linecap="round" stroke-linejoin="round" stroke-miterlimit="10" d="
				M406.661,19.973c-4.489,4.329-10.563,7.001-17.305,7.009c-6.742,0.008-12.82-2.652-17.32-6.97
				c4.49-4.348,10.563-7.021,17.306-7.028C396.084,12.976,402.162,15.636,406.661,19.973z" class="OxYpkKlf_19"></path>
			<path fill="none" stroke="#132345" stroke-width="3" stroke-linecap="round" stroke-linejoin="round" stroke-miterlimit="10" d="
				M372.076,55.836c4.49-4.328,10.563-7.001,17.306-7.009c6.741-0.007,12.819,2.652,17.319,6.971
				c-4.489,4.348-10.563,7.021-17.305,7.028C382.655,62.833,376.575,60.174,372.076,55.836z" class="OxYpkKlf_20"></path>
			
				<path transform="matrix(-0.0011 -1 1 -0.0011 351.9046 427.3067)" fill="none" stroke="#132345" stroke-width="3" stroke-linecap="round" stroke-linejoin="round" stroke-miterlimit="10" d="M364.453,37.894A24.918,9.902 0,1,1 414.289,37.894A24.918,9.902 0,1,1 364.453,37.894" class="OxYpkKlf_21"></path>
			
				<path fill="none" stroke="#132345" stroke-width="3" stroke-linecap="round" stroke-linejoin="round" stroke-miterlimit="10" d="M364.452,37.928L414.288,37.873" class="OxYpkKlf_22"></path>
		</g>
	</g>
	<path fill="none" stroke="#132345" stroke-width="3" stroke-linecap="round" stroke-linejoin="round" stroke-miterlimit="10" d="
		M313.044,54.328h-30.228c-3.243,0-5.875-2.631-5.875-5.875V27.356c0-3.245,2.632-5.875,5.875-5.875h30.228
		c3.243,0,5.875,2.63,5.875,5.875v21.097C318.919,51.697,316.287,54.328,313.044,54.328z" class="OxYpkKlf_23"></path>
	<path fill="#EA4F1F" d="M290.736,37.904v-6.177c0-1.42,1.538-2.308,2.769-1.598l5.35,3.088l5.35,3.089
		c1.229,0.71,1.229,2.485,0,3.195l-5.35,3.089l-5.35,3.088c-1.229,0.71-2.769-0.178-2.769-1.598V37.904z" class="OxYpkKlf_24"></path>
	<path fill="#62C4F3" d="M48.32299999999999,193.748A16.557,16.557 0,1,1 81.437,193.748A16.557,16.557 0,1,1 48.32299999999999,193.748" class="OxYpkKlf_25"></path>
	
		<path fill="none" stroke="#132345" stroke-width="3" stroke-linecap="round" stroke-linejoin="round" stroke-miterlimit="10" d="M55.93299999999999,193.748A8.947,8.947 0,1,1 73.827,193.748A8.947,8.947 0,1,1 55.93299999999999,193.748" class="OxYpkKlf_26"></path>
	<path fill="#81C0ED" d="M61.897999999999996,193.748A2.982,2.982 0,1,1 67.862,193.748A2.982,2.982 0,1,1 61.897999999999996,193.748" class="OxYpkKlf_27"></path>
	
		<path fill="none" stroke="#132345" stroke-width="3" stroke-linecap="round" stroke-linejoin="round" stroke-miterlimit="10" d="M64.88,193.748L85.168,173.46" class="OxYpkKlf_28"></path>
	<path fill="#132345" d="M81.68,171.43l-3.651,3.651c-0.145,0.146-0.2,0.356-0.146,0.555l1.128,4.138l4.581-4.582l-0.957-3.508
		C82.52,171.261,81.99,171.12,81.68,171.43z" class="OxYpkKlf_29"></path>
	<path fill="#132345" d="M87.353,177.102l-3.651,3.652c-0.146,0.145-0.356,0.2-0.555,0.146l-4.137-1.129l4.581-4.58l3.508,0.955
		C87.522,176.264,87.662,176.792,87.353,177.102z" class="OxYpkKlf_30"></path>
	
		<path fill="none" stroke="#62C4F3" stroke-width="4" stroke-linecap="round" stroke-linejoin="round" stroke-miterlimit="10" d="M243.979,145.047L274.183,145.047" class="OxYpkKlf_31"></path>
	
		<path fill="none" stroke="#62C4F3" stroke-width="4" stroke-linecap="round" stroke-linejoin="round" stroke-miterlimit="10" d="M243.979,154.241L263.457,154.241" class="OxYpkKlf_32"></path>
	
		<path fill="none" stroke="#62C4F3" stroke-width="4" stroke-linecap="round" stroke-linejoin="round" stroke-miterlimit="10" d="M269.433,154.241L274.183,154.241" class="OxYpkKlf_33"></path>
	
		<path fill="none" stroke="#FFFFFF" stroke-width="4" stroke-linecap="round" stroke-linejoin="round" stroke-miterlimit="10" d="M344.947,143.999L365.411,143.999" class="OxYpkKlf_34"></path>
	
		<path fill="none" stroke="#FFFFFF" stroke-width="4" stroke-linecap="round" stroke-linejoin="round" stroke-miterlimit="10" d="M372.776,114.913L389.496,114.913" class="OxYpkKlf_35"></path>
	
		<path fill="none" stroke="#FFFFFF" stroke-width="4" stroke-linecap="round" stroke-linejoin="round" stroke-miterlimit="10" d="M372.776,123.52L389.496,123.52" class="OxYpkKlf_36"></path>
	
		<path fill="none" stroke="#FFFFFF" stroke-width="4" stroke-linecap="round" stroke-linejoin="round" stroke-miterlimit="10" d="M372.776,132.125L389.496,132.125" class="OxYpkKlf_37"></path>
	
		<path fill="none" stroke="#FFFFFF" stroke-width="4" stroke-linecap="round" stroke-linejoin="round" stroke-miterlimit="10" d="M344.947,153.193L354.687,153.193" class="OxYpkKlf_38"></path>
	
		<path fill="none" stroke="#FFFFFF" stroke-width="4" stroke-linecap="round" stroke-linejoin="round" stroke-miterlimit="10" d="M360.662,153.193L365.411,153.193" class="OxYpkKlf_39"></path>
	<g>
		<g>
			
				<path fill="none" stroke="#132345" stroke-width="3" stroke-linecap="round" stroke-linejoin="round" d="M224.076,101.974L224.076,95.974" class="OxYpkKlf_40"></path>
			
				<path fill="none" stroke="#132345" stroke-width="3" stroke-linecap="round" stroke-linejoin="round" stroke-dasharray="10.4138,10.4138" d="M224.076,85.56L224.076,49.111" class="OxYpkKlf_41"></path>
			<path fill="none" stroke="#132345" stroke-width="3" stroke-linecap="round" stroke-linejoin="round" d="M224.076,43.904L224.076,37.904L230.076,37.904" class="OxYpkKlf_42"></path>
			
				<path fill="none" stroke="#132345" stroke-width="3" stroke-linecap="round" stroke-linejoin="round" stroke-dasharray="7.6682,7.6682" d="M237.745,37.904L249.247,37.904" class="OxYpkKlf_43"></path>
			
				<path fill="none" stroke="#132345" stroke-width="3" stroke-linecap="round" stroke-linejoin="round" d="M253.081,37.904L259.081,37.904" class="OxYpkKlf_44"></path>
		</g>
	</g>
	<path fill="#132345" d="M258.887,37.904A4.57,4.57 0,1,1 268.027,37.904A4.57,4.57 0,1,1 258.887,37.904" class="OxYpkKlf_45"></path>
	<path fill="#132345" d="M355.479,127.413A4.57,4.57 0,1,1 364.61899999999997,127.413A4.57,4.57 0,1,1 355.479,127.413" class="OxYpkKlf_46"></path>
	<path fill="#132345" d="M376.026,147.651A4.57,4.57 0,1,1 385.166,147.651A4.57,4.57 0,1,1 376.026,147.651" class="OxYpkKlf_47"></path>
	<path fill="#132345" d="M421.089,62.607A4.569,4.569 0,1,1 430.22700000000003,62.607A4.569,4.569 0,1,1 421.089,62.607" class="OxYpkKlf_48"></path>
	<path fill="#132345" d="M308.158,67.177A4.57,4.57 0,1,1 317.298,67.177A4.57,4.57 0,1,1 308.158,67.177" class="OxYpkKlf_49"></path>
	<path fill="#132345" d="M219.506,105.425A4.57,4.57 0,1,1 228.646,105.425A4.57,4.57 0,1,1 219.506,105.425" class="OxYpkKlf_50"></path>
	<path fill="#132345" d="M184.83,147.651A4.57,4.57 0,1,1 193.97,147.651A4.57,4.57 0,1,1 184.83,147.651" class="OxYpkKlf_51"></path>
	<path fill="#132345" d="M80.08699999999999,147.651A4.57,4.57 0,1,1 89.227,147.651A4.57,4.57 0,1,1 80.08699999999999,147.651" class="OxYpkKlf_52"></path>
	<path fill="#132345" d="M28.412,145.047A3.498,3.498 0,1,1 35.408,145.047A3.498,3.498 0,1,1 28.412,145.047" class="OxYpkKlf_53"></path>
	<path fill="#132345" d="M41.909,145.047A3.499,3.499 0,1,1 48.907000000000004,145.047A3.499,3.499 0,1,1 41.909,145.047" class="OxYpkKlf_54"></path>
	<path fill="#132345" d="M55.407,145.047A3.499,3.499 0,1,1 62.405,145.047A3.499,3.499 0,1,1 55.407,145.047" class="OxYpkKlf_55"></path>
	
		<path fill="none" stroke="#132345" stroke-width="3" stroke-linecap="round" stroke-linejoin="round" stroke-miterlimit="10" stroke-dasharray="12" d="M186.688,147.65L86.451,147.65" class="OxYpkKlf_56"></path>
	<path fill="none" stroke="#132345" stroke-width="3" stroke-linecap="round" stroke-linejoin="round" stroke-miterlimit="10" d="
		M44.831,118.932c-14.051,0-25.439,11.391-25.439,25.439c0,10.753,6.676,19.941,16.106,23.664c-1.725,3.068-4.196,5.91-7.271,8.337
		c0.815-0.084,1.637-0.201,2.464-0.361c5.077-0.981,9.459-3.263,12.625-6.25c0.501,0.029,1.006,0.05,1.516,0.05
		c14.049,0,25.438-11.391,25.438-25.438C70.269,130.32,58.88,118.932,44.831,118.932z" class="OxYpkKlf_57"></path>
	<path fill="none" stroke="#132345" stroke-width="3" stroke-linecap="round" stroke-linejoin="round" stroke-miterlimit="10" d="
		M73.686,128.456c-0.439-0.797-0.913-1.573-1.416-2.328" class="OxYpkKlf_58"></path>
	<path fill="none" stroke="#132345" stroke-width="3" stroke-linecap="round" stroke-linejoin="round" stroke-miterlimit="10" d="
		M67.921,120.869c-5.945-5.842-14.097-9.445-23.091-9.445" class="OxYpkKlf_59"></path>
	<path fill="none" stroke="#132345" stroke-width="3" stroke-linecap="round" stroke-linejoin="round" stroke-miterlimit="10" d="
		M331.188,196.048c0,5.552,4.501,10.052,10.053,10.052h48.525c5.552,0,10.053-4.5,10.053-10.052v-1.312h-68.631V196.048z" class="OxYpkKlf_60"></path>
	<path fill="none" stroke="#132345" stroke-width="3" stroke-linecap="round" stroke-linejoin="round" stroke-miterlimit="10" d="
		M399.819,102.457v-1.312c0-5.552-4.501-10.053-10.053-10.053H341.24c-5.552,0-10.053,4.501-10.053,10.053v1.312H399.819" class="OxYpkKlf_61"></path>
	
		<path fill="none" stroke="#132345" stroke-width="3" stroke-linecap="round" stroke-linejoin="round" stroke-miterlimit="10" d="M399.819,156.852L399.819,194.736L331.188,194.736L331.188,136.611" class="OxYpkKlf_62"></path>
	
		<path fill="none" stroke="#132345" stroke-width="3" stroke-linecap="round" stroke-linejoin="round" stroke-miterlimit="10" d="M331.188,118.214L331.188,102.457L399.819,102.457L399.819,138.452" class="OxYpkKlf_63"></path>
	<path fill="#132345" d="M362.433,200.461A3.071,3.071 0,1,1 368.57500000000005,200.461A3.071,3.071 0,1,1 362.433,200.461" class="OxYpkKlf_64"></path>
	<g>
		<g>
			
				<path fill="none" stroke="#132345" stroke-width="3" stroke-linecap="round" stroke-linejoin="round" d="M312.729,71.247L312.729,77.247" class="OxYpkKlf_65"></path>
			
				<path fill="none" stroke="#132345" stroke-width="3" stroke-linecap="round" stroke-linejoin="round" stroke-dasharray="14.7218,14.7218" d="M312.729,91.97L312.729,114.052" class="OxYpkKlf_66"></path>
			<path fill="none" stroke="#132345" stroke-width="3" stroke-linecap="round" stroke-linejoin="round" d="M312.729,121.413L312.729,127.413L318.729,127.413" class="OxYpkKlf_67"></path>
			
				<path fill="none" stroke="#132345" stroke-width="3" stroke-linecap="round" stroke-linejoin="round" stroke-dasharray="10.2505,10.2505" d="M328.979,127.413L344.354,127.413" class="OxYpkKlf_68"></path>
			
				<path fill="none" stroke="#132345" stroke-width="3" stroke-linecap="round" stroke-linejoin="round" d="M349.479,127.413L355.479,127.413" class="OxYpkKlf_69"></path>
		</g>
	</g>
	<g>
		<g>
			
				<path fill="none" stroke="#132345" stroke-width="3" stroke-linecap="round" stroke-linejoin="round" d="M382.977,147.65L388.977,147.65" class="OxYpkKlf_70"></path>
			
				<path fill="none" stroke="#132345" stroke-width="3" stroke-linecap="round" stroke-linejoin="round" stroke-dasharray="10.2276,10.2276" d="M399.203,147.65L414.545,147.65" class="OxYpkKlf_71"></path>
			<path fill="none" stroke="#132345" stroke-width="3" stroke-linecap="round" stroke-linejoin="round" d="M419.658,147.65L425.658,147.65L425.658,141.652" class="OxYpkKlf_72"></path>
			
				<path fill="none" stroke="#132345" stroke-width="3" stroke-linecap="round" stroke-linejoin="round" stroke-dasharray="14.1384,14.1384" d="M425.658,127.514L425.658,78.029" class="OxYpkKlf_73"></path>
			
				<path fill="none" stroke="#132345" stroke-width="3" stroke-linecap="round" stroke-linejoin="round" d="M425.658,70.96L425.658,64.96" class="OxYpkKlf_74"></path>
		</g>
	</g>
	
		<path fill="none" stroke="#132345" stroke-width="3" stroke-linecap="round" stroke-linejoin="round" stroke-miterlimit="10" d="M117.084,216.415L274.309,216.415" class="OxYpkKlf_75"></path>
	
		<path fill="none" stroke="#132345" stroke-width="3" stroke-linecap="round" stroke-linejoin="round" stroke-miterlimit="10" d="M282.532,216.415L284.775,216.415" class="OxYpkKlf_76"></path>
	<g>
		<g>
			<g>
				
					<path fill="none" stroke="#132345" stroke-width="3" stroke-linecap="round" stroke-linejoin="round" stroke-miterlimit="10" d="
					M404.529,93.312c0.929,1.681,1.592,3.528,1.929,5.485 M364.457,84.197h24.653c4.17,0,8.006,1.458,11.025,3.89" class="OxYpkKlf_77"></path>
			</g>
		</g>
	</g>
	
		<path fill="none" stroke="#132345" stroke-width="3" stroke-linecap="round" stroke-linejoin="round" stroke-miterlimit="10" d="M339.31,216.415L343.493,216.415L343.493,216.415Z" class="OxYpkKlf_78"></path>
	
		<path fill="none" stroke="#132345" stroke-width="3" stroke-linecap="round" stroke-linejoin="round" stroke-miterlimit="10" d="M351.497,216.415L393.951,216.415" class="OxYpkKlf_79"></path>
</g>
<style data-made-with="vivus-instant">.OxYpkKlf_0{stroke-dasharray:317 319;stroke-dashoffset:318;animation:OxYpkKlf_draw_0 10200ms linear 0ms infinite,OxYpkKlf_fade 10200ms linear 0ms infinite;}.OxYpkKlf_1{stroke-dasharray:322 324;stroke-dashoffset:323;animation:OxYpkKlf_draw_1 10200ms linear 0ms infinite,OxYpkKlf_fade 10200ms linear 0ms infinite;}.OxYpkKlf_2{stroke-dasharray:297 299;stroke-dashoffset:298;animation:OxYpkKlf_draw_2 10200ms linear 0ms infinite,OxYpkKlf_fade 10200ms linear 0ms infinite;}.OxYpkKlf_3{stroke-dasharray:487 489;stroke-dashoffset:488;animation:OxYpkKlf_draw_3 10200ms linear 0ms infinite,OxYpkKlf_fade 10200ms linear 0ms infinite;}.OxYpkKlf_4{stroke-dasharray:216 218;stroke-dashoffset:217;animation:OxYpkKlf_draw_4 10200ms linear 0ms infinite,OxYpkKlf_fade 10200ms linear 0ms infinite;}.OxYpkKlf_5{stroke-dasharray:298 300;stroke-dashoffset:299;animation:OxYpkKlf_draw_5 10200ms linear 0ms infinite,OxYpkKlf_fade 10200ms linear 0ms infinite;}.OxYpkKlf_6{stroke-dasharray:289 291;stroke-dashoffset:290;animation:OxYpkKlf_draw_6 10200ms linear 0ms infinite,OxYpkKlf_fade 10200ms linear 0ms infinite;}.OxYpkKlf_7{stroke-dasharray:424 426;stroke-dashoffset:425;animation:OxYpkKlf_draw_7 10200ms linear 0ms infinite,OxYpkKlf_fade 10200ms linear 0ms infinite;}.OxYpkKlf_8{stroke-dasharray:477 479;stroke-dashoffset:478;animation:OxYpkKlf_draw_8 10200ms linear 0ms infinite,OxYpkKlf_fade 10200ms linear 0ms infinite;}.OxYpkKlf_9{stroke-dasharray:72 74;stroke-dashoffset:73;animation:OxYpkKlf_draw_9 10200ms linear 0ms infinite,OxYpkKlf_fade 10200ms linear 0ms infinite;}.OxYpkKlf_10{stroke-dasharray:19 21;stroke-dashoffset:20;animation:OxYpkKlf_draw_10 10200ms linear 0ms infinite,OxYpkKlf_fade 10200ms linear 0ms infinite;}.OxYpkKlf_11{stroke-dasharray:473 475;stroke-dashoffset:474;animation:OxYpkKlf_draw_11 10200ms linear 0ms infinite,OxYpkKlf_fade 10200ms linear 0ms infinite;}.OxYpkKlf_12{stroke-dasharray:115 117;stroke-dashoffset:116;animation:OxYpkKlf_draw_12 10200ms linear 0ms infinite,OxYpkKlf_fade 10200ms linear 0ms infinite;}.OxYpkKlf_13{stroke-dasharray:298 300;stroke-dashoffset:299;animation:OxYpkKlf_draw_13 10200ms linear 0ms infinite,OxYpkKlf_fade 10200ms linear 0ms infinite;}.OxYpkKlf_14{stroke-dasharray:7 9;stroke-dashoffset:8;animation:OxYpkKlf_draw_14 10200ms linear 0ms infinite,OxYpkKlf_fade 10200ms linear 0ms infinite;}.OxYpkKlf_15{stroke-dasharray:156 158;stroke-dashoffset:157;animation:OxYpkKlf_draw_15 10200ms linear 0ms infinite,OxYpkKlf_fade 10200ms linear 0ms infinite;}.OxYpkKlf_16{stroke-dasharray:6 8;stroke-dashoffset:7;animation:OxYpkKlf_draw_16 10200ms linear 0ms infinite,OxYpkKlf_fade 10200ms linear 0ms infinite;}.OxYpkKlf_17{stroke-dasharray:3 5;stroke-dashoffset:4;animation:OxYpkKlf_draw_17 10200ms linear 0ms infinite,OxYpkKlf_fade 10200ms linear 0ms infinite;}.OxYpkKlf_18{stroke-dasharray:157 159;stroke-dashoffset:158;animation:OxYpkKlf_draw_18 10200ms linear 0ms infinite,OxYpkKlf_fade 10200ms linear 0ms infinite;}.OxYpkKlf_19{stroke-dasharray:77 79;stroke-dashoffset:78;animation:OxYpkKlf_draw_19 10200ms linear 0ms infinite,OxYpkKlf_fade 10200ms linear 0ms infinite;}.OxYpkKlf_20{stroke-dasharray:77 79;stroke-dashoffset:78;animation:OxYpkKlf_draw_20 10200ms linear 0ms infinite,OxYpkKlf_fade 10200ms linear 0ms infinite;}.OxYpkKlf_21{stroke-dasharray:115 117;stroke-dashoffset:116;animation:OxYpkKlf_draw_21 10200ms linear 0ms infinite,OxYpkKlf_fade 10200ms linear 0ms infinite;}.OxYpkKlf_22{stroke-dasharray:50 52;stroke-dashoffset:51;animation:OxYpkKlf_draw_22 10200ms linear 0ms infinite,OxYpkKlf_fade 10200ms linear 0ms infinite;}.OxYpkKlf_23{stroke-dasharray:140 142;stroke-dashoffset:141;animation:OxYpkKlf_draw_23 10200ms linear 0ms infinite,OxYpkKlf_fade 10200ms linear 0ms infinite;}.OxYpkKlf_24{stroke-dasharray:49 51;stroke-dashoffset:50;animation:OxYpkKlf_draw_24 10200ms linear 0ms infinite,OxYpkKlf_fade 10200ms linear 0ms infinite;}.OxYpkKlf_25{stroke-dasharray:105 107;stroke-dashoffset:106;animation:OxYpkKlf_draw_25 10200ms linear 0ms infinite,OxYpkKlf_fade 10200ms linear 0ms infinite;}.OxYpkKlf_26{stroke-dasharray:57 59;stroke-dashoffset:58;animation:OxYpkKlf_draw_26 10200ms linear 0ms infinite,OxYpkKlf_fade 10200ms linear 0ms infinite;}.OxYpkKlf_27{stroke-dasharray:19 21;stroke-dashoffset:20;animation:OxYpkKlf_draw_27 10200ms linear 0ms infinite,OxYpkKlf_fade 10200ms linear 0ms infinite;}.OxYpkKlf_28{stroke-dasharray:29 31;stroke-dashoffset:30;animation:OxYpkKlf_draw_28 10200ms linear 0ms infinite,OxYpkKlf_fade 10200ms linear 0ms infinite;}.OxYpkKlf_29{stroke-dasharray:22 24;stroke-dashoffset:23;animation:OxYpkKlf_draw_29 10200ms linear 0ms infinite,OxYpkKlf_fade 10200ms linear 0ms infinite;}.OxYpkKlf_30{stroke-dasharray:22 24;stroke-dashoffset:23;animation:OxYpkKlf_draw_30 10200ms linear 0ms infinite,OxYpkKlf_fade 10200ms linear 0ms infinite;}.OxYpkKlf_31{stroke-dasharray:31 33;stroke-dashoffset:32;animation:OxYpkKlf_draw_31 10200ms linear 0ms infinite,OxYpkKlf_fade 10200ms linear 0ms infinite;}.OxYpkKlf_32{stroke-dasharray:20 22;stroke-dashoffset:21;animation:OxYpkKlf_draw_32 10200ms linear 0ms infinite,OxYpkKlf_fade 10200ms linear 0ms infinite;}.OxYpkKlf_33{stroke-dasharray:5 7;stroke-dashoffset:6;animation:OxYpkKlf_draw_33 10200ms linear 0ms infinite,OxYpkKlf_fade 10200ms linear 0ms infinite;}.OxYpkKlf_34{stroke-dasharray:21 23;stroke-dashoffset:22;animation:OxYpkKlf_draw_34 10200ms linear 0ms infinite,OxYpkKlf_fade 10200ms linear 0ms infinite;}.OxYpkKlf_35{stroke-dasharray:17 19;stroke-dashoffset:18;animation:OxYpkKlf_draw_35 10200ms linear 0ms infinite,OxYpkKlf_fade 10200ms linear 0ms infinite;}.OxYpkKlf_36{stroke-dasharray:17 19;stroke-dashoffset:18;animation:OxYpkKlf_draw_36 10200ms linear 0ms infinite,OxYpkKlf_fade 10200ms linear 0ms infinite;}.OxYpkKlf_37{stroke-dasharray:17 19;stroke-dashoffset:18;animation:OxYpkKlf_draw_37 10200ms linear 0ms infinite,OxYpkKlf_fade 10200ms linear 0ms infinite;}.OxYpkKlf_38{stroke-dasharray:10 12;stroke-dashoffset:11;animation:OxYpkKlf_draw_38 10200ms linear 0ms infinite,OxYpkKlf_fade 10200ms linear 0ms infinite;}.OxYpkKlf_39{stroke-dasharray:5 7;stroke-dashoffset:6;animation:OxYpkKlf_draw_39 10200ms linear 0ms infinite,OxYpkKlf_fade 10200ms linear 0ms infinite;}.OxYpkKlf_40{stroke-dasharray:6 8;stroke-dashoffset:7;animation:OxYpkKlf_draw_40 10200ms linear 0ms infinite,OxYpkKlf_fade 10200ms linear 0ms infinite;}.OxYpkKlf_41{stroke-dasharray:37 39;stroke-dashoffset:38;animation:OxYpkKlf_draw_41 10200ms linear 0ms infinite,OxYpkKlf_fade 10200ms linear 0ms infinite;}.OxYpkKlf_42{stroke-dasharray:12 14;stroke-dashoffset:13;animation:OxYpkKlf_draw_42 10200ms linear 0ms infinite,OxYpkKlf_fade 10200ms linear 0ms infinite;}.OxYpkKlf_43{stroke-dasharray:12 14;stroke-dashoffset:13;animation:OxYpkKlf_draw_43 10200ms linear 0ms infinite,OxYpkKlf_fade 10200ms linear 0ms infinite;}.OxYpkKlf_44{stroke-dasharray:6 8;stroke-dashoffset:7;animation:OxYpkKlf_draw_44 10200ms linear 0ms infinite,OxYpkKlf_fade 10200ms linear 0ms infinite;}.OxYpkKlf_45{stroke-dasharray:29 31;stroke-dashoffset:30;animation:OxYpkKlf_draw_45 10200ms linear 0ms infinite,OxYpkKlf_fade 10200ms linear 0ms infinite;}.OxYpkKlf_46{stroke-dasharray:29 31;stroke-dashoffset:30;animation:OxYpkKlf_draw_46 10200ms linear 0ms infinite,OxYpkKlf_fade 10200ms linear 0ms infinite;}.OxYpkKlf_47{stroke-dasharray:29 31;stroke-dashoffset:30;animation:OxYpkKlf_draw_47 10200ms linear 0ms infinite,OxYpkKlf_fade 10200ms linear 0ms infinite;}.OxYpkKlf_48{stroke-dasharray:29 31;stroke-dashoffset:30;animation:OxYpkKlf_draw_48 10200ms linear 0ms infinite,OxYpkKlf_fade 10200ms linear 0ms infinite;}.OxYpkKlf_49{stroke-dasharray:29 31;stroke-dashoffset:30;animation:OxYpkKlf_draw_49 10200ms linear 0ms infinite,OxYpkKlf_fade 10200ms linear 0ms infinite;}.OxYpkKlf_50{stroke-dasharray:29 31;stroke-dashoffset:30;animation:OxYpkKlf_draw_50 10200ms linear 0ms infinite,OxYpkKlf_fade 10200ms linear 0ms infinite;}.OxYpkKlf_51{stroke-dasharray:29 31;stroke-dashoffset:30;animation:OxYpkKlf_draw_51 10200ms linear 0ms infinite,OxYpkKlf_fade 10200ms linear 0ms infinite;}.OxYpkKlf_52{stroke-dasharray:29 31;stroke-dashoffset:30;animation:OxYpkKlf_draw_52 10200ms linear 0ms infinite,OxYpkKlf_fade 10200ms linear 0ms infinite;}.OxYpkKlf_53{stroke-dasharray:22 24;stroke-dashoffset:23;animation:OxYpkKlf_draw_53 10200ms linear 0ms infinite,OxYpkKlf_fade 10200ms linear 0ms infinite;}.OxYpkKlf_54{stroke-dasharray:22 24;stroke-dashoffset:23;animation:OxYpkKlf_draw_54 10200ms linear 0ms infinite,OxYpkKlf_fade 10200ms linear 0ms infinite;}.OxYpkKlf_55{stroke-dasharray:23 25;stroke-dashoffset:24;animation:OxYpkKlf_draw_55 10200ms linear 0ms infinite,OxYpkKlf_fade 10200ms linear 0ms infinite;}.OxYpkKlf_56{stroke-dasharray:101 103;stroke-dashoffset:102;animation:OxYpkKlf_draw_56 10200ms linear 0ms infinite,OxYpkKlf_fade 10200ms linear 0ms infinite;}.OxYpkKlf_57{stroke-dasharray:180 182;stroke-dashoffset:181;animation:OxYpkKlf_draw_57 10200ms linear 0ms infinite,OxYpkKlf_fade 10200ms linear 0ms infinite;}.OxYpkKlf_58{stroke-dasharray:3 5;stroke-dashoffset:4;animation:OxYpkKlf_draw_58 10200ms linear 0ms infinite,OxYpkKlf_fade 10200ms linear 0ms infinite;}.OxYpkKlf_59{stroke-dasharray:26 28;stroke-dashoffset:27;animation:OxYpkKlf_draw_59 10200ms linear 0ms infinite,OxYpkKlf_fade 10200ms linear 0ms infinite;}.OxYpkKlf_60{stroke-dasharray:152 154;stroke-dashoffset:153;animation:OxYpkKlf_draw_60 10200ms linear 0ms infinite,OxYpkKlf_fade 10200ms linear 0ms infinite;}.OxYpkKlf_61{stroke-dasharray:152 154;stroke-dashoffset:153;animation:OxYpkKlf_draw_61 10200ms linear 0ms infinite,OxYpkKlf_fade 10200ms linear 0ms infinite;}.OxYpkKlf_62{stroke-dasharray:165 167;stroke-dashoffset:166;animation:OxYpkKlf_draw_62 10200ms linear 0ms infinite,OxYpkKlf_fade 10200ms linear 0ms infinite;}.OxYpkKlf_63{stroke-dasharray:121 123;stroke-dashoffset:122;animation:OxYpkKlf_draw_63 10200ms linear 0ms infinite,OxYpkKlf_fade 10200ms linear 0ms infinite;}.OxYpkKlf_64{stroke-dasharray:20 22;stroke-dashoffset:21;animation:OxYpkKlf_draw_64 10200ms linear 0ms infinite,OxYpkKlf_fade 10200ms linear 0ms infinite;}.OxYpkKlf_65{stroke-dasharray:6 8;stroke-dashoffset:7;animation:OxYpkKlf_draw_65 10200ms linear 0ms infinite,OxYpkKlf_fade 10200ms linear 0ms infinite;}.OxYpkKlf_66{stroke-dasharray:23 25;stroke-dashoffset:24;animation:OxYpkKlf_draw_66 10200ms linear 0ms infinite,OxYpkKlf_fade 10200ms linear 0ms infinite;}.OxYpkKlf_67{stroke-dasharray:12 14;stroke-dashoffset:13;animation:OxYpkKlf_draw_67 10200ms linear 0ms infinite,OxYpkKlf_fade 10200ms linear 0ms infinite;}.OxYpkKlf_68{stroke-dasharray:16 18;stroke-dashoffset:17;animation:OxYpkKlf_draw_68 10200ms linear 0ms infinite,OxYpkKlf_fade 10200ms linear 0ms infinite;}.OxYpkKlf_69{stroke-dasharray:6 8;stroke-dashoffset:7;animation:OxYpkKlf_draw_69 10200ms linear 0ms infinite,OxYpkKlf_fade 10200ms linear 0ms infinite;}.OxYpkKlf_70{stroke-dasharray:6 8;stroke-dashoffset:7;animation:OxYpkKlf_draw_70 10200ms linear 0ms infinite,OxYpkKlf_fade 10200ms linear 0ms infinite;}.OxYpkKlf_71{stroke-dasharray:16 18;stroke-dashoffset:17;animation:OxYpkKlf_draw_71 10200ms linear 0ms infinite,OxYpkKlf_fade 10200ms linear 0ms infinite;}.OxYpkKlf_72{stroke-dasharray:12 14;stroke-dashoffset:13;animation:OxYpkKlf_draw_72 10200ms linear 0ms infinite,OxYpkKlf_fade 10200ms linear 0ms infinite;}.OxYpkKlf_73{stroke-dasharray:50 52;stroke-dashoffset:51;animation:OxYpkKlf_draw_73 10200ms linear 0ms infinite,OxYpkKlf_fade 10200ms linear 0ms infinite;}.OxYpkKlf_74{stroke-dasharray:6 8;stroke-dashoffset:7;animation:OxYpkKlf_draw_74 10200ms linear 0ms infinite,OxYpkKlf_fade 10200ms linear 0ms infinite;}.OxYpkKlf_75{stroke-dasharray:158 160;stroke-dashoffset:159;animation:OxYpkKlf_draw_75 10200ms linear 0ms infinite,OxYpkKlf_fade 10200ms linear 0ms infinite;}.OxYpkKlf_76{stroke-dasharray:3 5;stroke-dashoffset:4;animation:OxYpkKlf_draw_76 10200ms linear 0ms infinite,OxYpkKlf_fade 10200ms linear 0ms infinite;}.OxYpkKlf_77{stroke-dasharray:43 45;stroke-dashoffset:44;animation:OxYpkKlf_draw_77 10200ms linear 0ms infinite,OxYpkKlf_fade 10200ms linear 0ms infinite;}.OxYpkKlf_78{stroke-dasharray:9 11;stroke-dashoffset:10;animation:OxYpkKlf_draw_78 10200ms linear 0ms infinite,OxYpkKlf_fade 10200ms linear 0ms infinite;}.OxYpkKlf_79{stroke-dasharray:43 45;stroke-dashoffset:44;animation:OxYpkKlf_draw_79 10200ms linear 0ms infinite,OxYpkKlf_fade 10200ms linear 0ms infinite;}@keyframes OxYpkKlf_draw{100%{stroke-dashoffset:0;}}@keyframes OxYpkKlf_fade{0%{stroke-opacity:1;}96.07843137254902%{stroke-opacity:1;}100%{stroke-opacity:0;}}@keyframes OxYpkKlf_draw_0{7.8431372549019605%{stroke-dashoffset: 318}66.66666666666666%{ stroke-dashoffset: 0;}100%{ stroke-dashoffset: 0;}}@keyframes OxYpkKlf_draw_1{7.8431372549019605%{stroke-dashoffset: 323}66.66666666666666%{ stroke-dashoffset: 0;}100%{ stroke-dashoffset: 0;}}@keyframes OxYpkKlf_draw_2{7.8431372549019605%{stroke-dashoffset: 298}66.66666666666666%{ stroke-dashoffset: 0;}100%{ stroke-dashoffset: 0;}}@keyframes OxYpkKlf_draw_3{7.8431372549019605%{stroke-dashoffset: 488}66.66666666666666%{ stroke-dashoffset: 0;}100%{ stroke-dashoffset: 0;}}@keyframes OxYpkKlf_draw_4{7.8431372549019605%{stroke-dashoffset: 217}66.66666666666666%{ stroke-dashoffset: 0;}100%{ stroke-dashoffset: 0;}}@keyframes OxYpkKlf_draw_5{7.8431372549019605%{stroke-dashoffset: 299}66.66666666666666%{ stroke-dashoffset: 0;}100%{ stroke-dashoffset: 0;}}@keyframes OxYpkKlf_draw_6{7.8431372549019605%{stroke-dashoffset: 290}66.66666666666666%{ stroke-dashoffset: 0;}100%{ stroke-dashoffset: 0;}}@keyframes OxYpkKlf_draw_7{7.8431372549019605%{stroke-dashoffset: 425}66.66666666666666%{ stroke-dashoffset: 0;}100%{ stroke-dashoffset: 0;}}@keyframes OxYpkKlf_draw_8{7.8431372549019605%{stroke-dashoffset: 478}66.66666666666666%{ stroke-dashoffset: 0;}100%{ stroke-dashoffset: 0;}}@keyframes OxYpkKlf_draw_9{7.8431372549019605%{stroke-dashoffset: 73}66.66666666666666%{ stroke-dashoffset: 0;}100%{ stroke-dashoffset: 0;}}@keyframes OxYpkKlf_draw_10{7.8431372549019605%{stroke-dashoffset: 20}66.66666666666666%{ stroke-dashoffset: 0;}100%{ stroke-dashoffset: 0;}}@keyframes OxYpkKlf_draw_11{7.8431372549019605%{stroke-dashoffset: 474}66.66666666666666%{ stroke-dashoffset: 0;}100%{ stroke-dashoffset: 0;}}@keyframes OxYpkKlf_draw_12{7.8431372549019605%{stroke-dashoffset: 116}66.66666666666666%{ stroke-dashoffset: 0;}100%{ stroke-dashoffset: 0;}}@keyframes OxYpkKlf_draw_13{7.8431372549019605%{stroke-dashoffset: 299}66.66666666666666%{ stroke-dashoffset: 0;}100%{ stroke-dashoffset: 0;}}@keyframes OxYpkKlf_draw_14{7.8431372549019605%{stroke-dashoffset: 8}66.66666666666666%{ stroke-dashoffset: 0;}100%{ stroke-dashoffset: 0;}}@keyframes OxYpkKlf_draw_15{7.8431372549019605%{stroke-dashoffset: 157}66.66666666666666%{ stroke-dashoffset: 0;}100%{ stroke-dashoffset: 0;}}@keyframes OxYpkKlf_draw_16{7.8431372549019605%{stroke-dashoffset: 7}66.66666666666666%{ stroke-dashoffset: 0;}100%{ stroke-dashoffset: 0;}}@keyframes OxYpkKlf_draw_17{7.8431372549019605%{stroke-dashoffset: 4}66.66666666666666%{ stroke-dashoffset: 0;}100%{ stroke-dashoffset: 0;}}@keyframes OxYpkKlf_draw_18{7.8431372549019605%{stroke-dashoffset: 158}66.66666666666666%{ stroke-dashoffset: 0;}100%{ stroke-dashoffset: 0;}}@keyframes OxYpkKlf_draw_19{7.8431372549019605%{stroke-dashoffset: 78}66.66666666666666%{ stroke-dashoffset: 0;}100%{ stroke-dashoffset: 0;}}@keyframes OxYpkKlf_draw_20{7.8431372549019605%{stroke-dashoffset: 78}66.66666666666666%{ stroke-dashoffset: 0;}100%{ stroke-dashoffset: 0;}}@keyframes OxYpkKlf_draw_21{7.8431372549019605%{stroke-dashoffset: 116}66.66666666666666%{ stroke-dashoffset: 0;}100%{ stroke-dashoffset: 0;}}@keyframes OxYpkKlf_draw_22{7.8431372549019605%{stroke-dashoffset: 51}66.66666666666666%{ stroke-dashoffset: 0;}100%{ stroke-dashoffset: 0;}}@keyframes OxYpkKlf_draw_23{7.8431372549019605%{stroke-dashoffset: 141}66.66666666666666%{ stroke-dashoffset: 0;}100%{ stroke-dashoffset: 0;}}@keyframes OxYpkKlf_draw_24{7.8431372549019605%{stroke-dashoffset: 50}66.66666666666666%{ stroke-dashoffset: 0;}100%{ stroke-dashoffset: 0;}}@keyframes OxYpkKlf_draw_25{7.8431372549019605%{stroke-dashoffset: 106}66.66666666666666%{ stroke-dashoffset: 0;}100%{ stroke-dashoffset: 0;}}@keyframes OxYpkKlf_draw_26{7.8431372549019605%{stroke-dashoffset: 58}66.66666666666666%{ stroke-dashoffset: 0;}100%{ stroke-dashoffset: 0;}}@keyframes OxYpkKlf_draw_27{7.8431372549019605%{stroke-dashoffset: 20}66.66666666666666%{ stroke-dashoffset: 0;}100%{ stroke-dashoffset: 0;}}@keyframes OxYpkKlf_draw_28{7.8431372549019605%{stroke-dashoffset: 30}66.66666666666666%{ stroke-dashoffset: 0;}100%{ stroke-dashoffset: 0;}}@keyframes OxYpkKlf_draw_29{7.8431372549019605%{stroke-dashoffset: 23}66.66666666666666%{ stroke-dashoffset: 0;}100%{ stroke-dashoffset: 0;}}@keyframes OxYpkKlf_draw_30{7.8431372549019605%{stroke-dashoffset: 23}66.66666666666666%{ stroke-dashoffset: 0;}100%{ stroke-dashoffset: 0;}}@keyframes OxYpkKlf_draw_31{7.8431372549019605%{stroke-dashoffset: 32}66.66666666666666%{ stroke-dashoffset: 0;}100%{ stroke-dashoffset: 0;}}@keyframes OxYpkKlf_draw_32{7.8431372549019605%{stroke-dashoffset: 21}66.66666666666666%{ stroke-dashoffset: 0;}100%{ stroke-dashoffset: 0;}}@keyframes OxYpkKlf_draw_33{7.8431372549019605%{stroke-dashoffset: 6}66.66666666666666%{ stroke-dashoffset: 0;}100%{ stroke-dashoffset: 0;}}@keyframes OxYpkKlf_draw_34{7.8431372549019605%{stroke-dashoffset: 22}66.66666666666666%{ stroke-dashoffset: 0;}100%{ stroke-dashoffset: 0;}}@keyframes OxYpkKlf_draw_35{7.8431372549019605%{stroke-dashoffset: 18}66.66666666666666%{ stroke-dashoffset: 0;}100%{ stroke-dashoffset: 0;}}@keyframes OxYpkKlf_draw_36{7.8431372549019605%{stroke-dashoffset: 18}66.66666666666666%{ stroke-dashoffset: 0;}100%{ stroke-dashoffset: 0;}}@keyframes OxYpkKlf_draw_37{7.8431372549019605%{stroke-dashoffset: 18}66.66666666666666%{ stroke-dashoffset: 0;}100%{ stroke-dashoffset: 0;}}@keyframes OxYpkKlf_draw_38{7.8431372549019605%{stroke-dashoffset: 11}66.66666666666666%{ stroke-dashoffset: 0;}100%{ stroke-dashoffset: 0;}}@keyframes OxYpkKlf_draw_39{7.8431372549019605%{stroke-dashoffset: 6}66.66666666666666%{ stroke-dashoffset: 0;}100%{ stroke-dashoffset: 0;}}@keyframes OxYpkKlf_draw_40{7.8431372549019605%{stroke-dashoffset: 7}66.66666666666666%{ stroke-dashoffset: 0;}100%{ stroke-dashoffset: 0;}}@keyframes OxYpkKlf_draw_41{7.8431372549019605%{stroke-dashoffset: 38}66.66666666666666%{ stroke-dashoffset: 0;}100%{ stroke-dashoffset: 0;}}@keyframes OxYpkKlf_draw_42{7.8431372549019605%{stroke-dashoffset: 13}66.66666666666666%{ stroke-dashoffset: 0;}100%{ stroke-dashoffset: 0;}}@keyframes OxYpkKlf_draw_43{7.8431372549019605%{stroke-dashoffset: 13}66.66666666666666%{ stroke-dashoffset: 0;}100%{ stroke-dashoffset: 0;}}@keyframes OxYpkKlf_draw_44{7.8431372549019605%{stroke-dashoffset: 7}66.66666666666666%{ stroke-dashoffset: 0;}100%{ stroke-dashoffset: 0;}}@keyframes OxYpkKlf_draw_45{7.8431372549019605%{stroke-dashoffset: 30}66.66666666666666%{ stroke-dashoffset: 0;}100%{ stroke-dashoffset: 0;}}@keyframes OxYpkKlf_draw_46{7.8431372549019605%{stroke-dashoffset: 30}66.66666666666666%{ stroke-dashoffset: 0;}100%{ stroke-dashoffset: 0;}}@keyframes OxYpkKlf_draw_47{7.8431372549019605%{stroke-dashoffset: 30}66.66666666666666%{ stroke-dashoffset: 0;}100%{ stroke-dashoffset: 0;}}@keyframes OxYpkKlf_draw_48{7.8431372549019605%{stroke-dashoffset: 30}66.66666666666666%{ stroke-dashoffset: 0;}100%{ stroke-dashoffset: 0;}}@keyframes OxYpkKlf_draw_49{7.8431372549019605%{stroke-dashoffset: 30}66.66666666666666%{ stroke-dashoffset: 0;}100%{ stroke-dashoffset: 0;}}@keyframes OxYpkKlf_draw_50{7.8431372549019605%{stroke-dashoffset: 30}66.66666666666666%{ stroke-dashoffset: 0;}100%{ stroke-dashoffset: 0;}}@keyframes OxYpkKlf_draw_51{7.8431372549019605%{stroke-dashoffset: 30}66.66666666666666%{ stroke-dashoffset: 0;}100%{ stroke-dashoffset: 0;}}@keyframes OxYpkKlf_draw_52{7.8431372549019605%{stroke-dashoffset: 30}66.66666666666666%{ stroke-dashoffset: 0;}100%{ stroke-dashoffset: 0;}}@keyframes OxYpkKlf_draw_53{7.8431372549019605%{stroke-dashoffset: 23}66.66666666666666%{ stroke-dashoffset: 0;}100%{ stroke-dashoffset: 0;}}@keyframes OxYpkKlf_draw_54{7.8431372549019605%{stroke-dashoffset: 23}66.66666666666666%{ stroke-dashoffset: 0;}100%{ stroke-dashoffset: 0;}}@keyframes OxYpkKlf_draw_55{7.8431372549019605%{stroke-dashoffset: 24}66.66666666666666%{ stroke-dashoffset: 0;}100%{ stroke-dashoffset: 0;}}@keyframes OxYpkKlf_draw_56{7.8431372549019605%{stroke-dashoffset: 102}66.66666666666666%{ stroke-dashoffset: 0;}100%{ stroke-dashoffset: 0;}}@keyframes OxYpkKlf_draw_57{7.8431372549019605%{stroke-dashoffset: 181}66.66666666666666%{ stroke-dashoffset: 0;}100%{ stroke-dashoffset: 0;}}@keyframes OxYpkKlf_draw_58{7.8431372549019605%{stroke-dashoffset: 4}66.66666666666666%{ stroke-dashoffset: 0;}100%{ stroke-dashoffset: 0;}}@keyframes OxYpkKlf_draw_59{7.8431372549019605%{stroke-dashoffset: 27}66.66666666666666%{ stroke-dashoffset: 0;}100%{ stroke-dashoffset: 0;}}@keyframes OxYpkKlf_draw_60{7.8431372549019605%{stroke-dashoffset: 153}66.66666666666666%{ stroke-dashoffset: 0;}100%{ stroke-dashoffset: 0;}}@keyframes OxYpkKlf_draw_61{7.8431372549019605%{stroke-dashoffset: 153}66.66666666666666%{ stroke-dashoffset: 0;}100%{ stroke-dashoffset: 0;}}@keyframes OxYpkKlf_draw_62{7.8431372549019605%{stroke-dashoffset: 166}66.66666666666666%{ stroke-dashoffset: 0;}100%{ stroke-dashoffset: 0;}}@keyframes OxYpkKlf_draw_63{7.8431372549019605%{stroke-dashoffset: 122}66.66666666666666%{ stroke-dashoffset: 0;}100%{ stroke-dashoffset: 0;}}@keyframes OxYpkKlf_draw_64{7.8431372549019605%{stroke-dashoffset: 21}66.66666666666666%{ stroke-dashoffset: 0;}100%{ stroke-dashoffset: 0;}}@keyframes OxYpkKlf_draw_65{7.8431372549019605%{stroke-dashoffset: 7}66.66666666666666%{ stroke-dashoffset: 0;}100%{ stroke-dashoffset: 0;}}@keyframes OxYpkKlf_draw_66{7.8431372549019605%{stroke-dashoffset: 24}66.66666666666666%{ stroke-dashoffset: 0;}100%{ stroke-dashoffset: 0;}}@keyframes OxYpkKlf_draw_67{7.8431372549019605%{stroke-dashoffset: 13}66.66666666666666%{ stroke-dashoffset: 0;}100%{ stroke-dashoffset: 0;}}@keyframes OxYpkKlf_draw_68{7.8431372549019605%{stroke-dashoffset: 17}66.66666666666666%{ stroke-dashoffset: 0;}100%{ stroke-dashoffset: 0;}}@keyframes OxYpkKlf_draw_69{7.8431372549019605%{stroke-dashoffset: 7}66.66666666666666%{ stroke-dashoffset: 0;}100%{ stroke-dashoffset: 0;}}@keyframes OxYpkKlf_draw_70{7.8431372549019605%{stroke-dashoffset: 7}66.66666666666666%{ stroke-dashoffset: 0;}100%{ stroke-dashoffset: 0;}}@keyframes OxYpkKlf_draw_71{7.8431372549019605%{stroke-dashoffset: 17}66.66666666666666%{ stroke-dashoffset: 0;}100%{ stroke-dashoffset: 0;}}@keyframes OxYpkKlf_draw_72{7.8431372549019605%{stroke-dashoffset: 13}66.66666666666666%{ stroke-dashoffset: 0;}100%{ stroke-dashoffset: 0;}}@keyframes OxYpkKlf_draw_73{7.8431372549019605%{stroke-dashoffset: 51}66.66666666666666%{ stroke-dashoffset: 0;}100%{ stroke-dashoffset: 0;}}@keyframes OxYpkKlf_draw_74{7.8431372549019605%{stroke-dashoffset: 7}66.66666666666666%{ stroke-dashoffset: 0;}100%{ stroke-dashoffset: 0;}}@keyframes OxYpkKlf_draw_75{7.8431372549019605%{stroke-dashoffset: 159}66.66666666666666%{ stroke-dashoffset: 0;}100%{ stroke-dashoffset: 0;}}@keyframes OxYpkKlf_draw_76{7.8431372549019605%{stroke-dashoffset: 4}66.66666666666666%{ stroke-dashoffset: 0;}100%{ stroke-dashoffset: 0;}}@keyframes OxYpkKlf_draw_77{7.8431372549019605%{stroke-dashoffset: 44}66.66666666666666%{ stroke-dashoffset: 0;}100%{ stroke-dashoffset: 0;}}@keyframes OxYpkKlf_draw_78{7.8431372549019605%{stroke-dashoffset: 10}66.66666666666666%{ stroke-dashoffset: 0;}100%{ stroke-dashoffset: 0;}}@keyframes OxYpkKlf_draw_79{7.8431372549019605%{stroke-dashoffset: 44}66.66666666666666%{ stroke-dashoffset: 0;}100%{ stroke-dashoffset: 0;}}</style></svg>
